# xmcd
#
# Track frame offsets: 
#        150
#        15628
#        34210
#        51481
#        69755
#        93206
#        109185
#        125270
#        143559
#        157827
#        170181
#        185715
#
# Disc length: 2713 seconds
#
# Revision: 0
# Processed by: cddbd v1.5.2PL0 Copyright (c) Steve Scherf et al.
# Submitted via: ExactAudioCopyFreeDBPlugin 1.0
#
DISCID=9d0a970c
DTITLE=Five Times August - Life As A Song
DYEAR=2009
DGENRE=Alt. Rock
TTITLE0=Do It Again
TTITLE1=Better With You
TTITLE2=Wherever
TTITLE3=Love the Way
TTITLE4=Up to Me
TTITLE5=Surface
TTITLE6=Beautiful Girls
TTITLE7=The Lighting
TTITLE8=January Song
TTITLE9=One Way Road
TTITLE10=Break
TTITLE11=Most Uncommon Thing
EXTD=
EXTT0=
EXTT1=
EXTT2=
EXTT3=
EXTT4=
EXTT5=
EXTT6=
EXTT7=
EXTT8=
EXTT9=
EXTT10=
EXTT11=
PLAYORDER=
